<svg width="31" height="36" viewBox="0 0 31 36" fill="none" xmlns="http://www.w3.org/2000/svg">
<path d="M18 36V25.8337C18 18.7463 23.8208 13 31 13V23.1663C31 30.2537 25.1792 36 18 36Z" fill="#FF8600"/>
<path d="M15 29V14.2899C15 6.39776 8.28432 0 0 0V14.7131C0 22.6052 6.71568 29 15 29Z" fill="#FFB800"/>
<path d="M27.9075 7.42358C28.5548 4.73908 26.9001 2.0515 24.2117 1.42071C21.5232 0.789919 18.8192 2.45478 18.1719 5.13928C17.5247 7.82378 19.1794 10.5114 21.8678 11.1422C24.5562 11.7729 27.2603 10.1081 27.9075 7.42358Z" fill="#3B3B45"/>
</svg>
