<svg width="12" height="12" viewBox="0 0 12 12" fill="none" xmlns="http://www.w3.org/2000/svg">
<path d="M11.3552 5.6421L11.3552 5.64211L11.3581 5.645C11.405 5.69148 11.4421 5.74679 11.4675 5.80771C11.4929 5.86864 11.506 5.93399 11.506 6C11.506 6.06601 11.4929 6.13136 11.4675 6.19229C11.4421 6.25321 11.405 6.30852 11.3581 6.355L11.3566 6.35645L6.36115 11.3519C6.31431 11.396 6.2594 11.4306 6.19943 11.4538L6.18864 11.458L6.17806 11.4627C6.12203 11.4874 6.06144 11.5002 6.00019 11.5002C5.93893 11.5002 5.87834 11.4874 5.82231 11.4627L5.81173 11.458L5.80094 11.4538C5.74097 11.4306 5.68606 11.396 5.63922 11.3519L0.643739 6.35645C0.549203 6.26191 0.496094 6.13369 0.496094 6C0.496094 5.86631 0.549203 5.73809 0.643739 5.64355C0.738274 5.54902 0.866491 5.49591 1.00019 5.49591C1.1338 5.49591 1.26195 5.54896 1.35647 5.64339C1.35653 5.64345 1.35658 5.6435 1.35663 5.64355L4.6461 8.94302L5.50019 9.7997V8.59V1C5.50019 0.867392 5.55286 0.740215 5.64663 0.646447C5.7404 0.552678 5.86758 0.5 6.00019 0.5C6.13279 0.5 6.25997 0.552678 6.35374 0.646447C6.44751 0.740215 6.50019 0.867392 6.50019 1V8.59V9.7997L7.35427 8.94302L10.6443 5.64302L10.6452 5.6421C10.6917 5.59524 10.747 5.55804 10.8079 5.53266C10.8688 5.50727 10.9342 5.4942 11.0002 5.4942C11.0662 5.4942 11.1315 5.50727 11.1925 5.53266C11.2534 5.55804 11.3087 5.59524 11.3552 5.6421Z" fill="#3B3B45" stroke="#FF5252"/>
</svg>
