<svg width="12" height="12" viewBox="0 0 12 12" fill="none" xmlns="http://www.w3.org/2000/svg">
<path d="M0.644815 6.3579L0.644828 6.35789L0.641918 6.355C0.59505 6.30852 0.557852 6.25321 0.532469 6.19229C0.507086 6.13136 0.494017 6.06601 0.494017 6C0.494017 5.93399 0.507086 5.86864 0.532469 5.80771C0.557852 5.74679 0.59505 5.69148 0.641921 5.645L0.64337 5.64355L5.63885 0.648076C5.68569 0.604036 5.7406 0.569436 5.80057 0.546185L5.81136 0.542002L5.82194 0.537323C5.87797 0.512559 5.93856 0.499767 5.99981 0.499767C6.06107 0.499767 6.12166 0.512559 6.17769 0.537323L6.18827 0.542002L6.19906 0.546185C6.25903 0.569436 6.31394 0.604036 6.36078 0.648076L11.3563 5.64355C11.4508 5.73809 11.5039 5.86631 11.5039 6C11.5039 6.13369 11.4508 6.26191 11.3563 6.35645C11.2617 6.45098 11.1335 6.50409 10.9998 6.50409C10.8662 6.50409 10.738 6.45104 10.6435 6.35661C10.6435 6.35655 10.6434 6.3565 10.6434 6.35645L7.3539 3.05698L6.49981 2.2003V3.41L6.49981 11C6.49981 11.1326 6.44714 11.2598 6.35337 11.3536C6.2596 11.4473 6.13242 11.5 5.99981 11.5C5.86721 11.5 5.74003 11.4473 5.64626 11.3536C5.55249 11.2598 5.49981 11.1326 5.49981 11L5.49981 3.41V2.2003L4.64573 3.05698L1.35572 6.35698L1.35481 6.3579C1.30833 6.40476 1.25303 6.44196 1.1921 6.46734C1.13117 6.49273 1.06582 6.5058 0.999815 6.5058C0.933809 6.5058 0.868457 6.49273 0.807527 6.46734C0.746597 6.44196 0.691298 6.40476 0.644815 6.3579Z" stroke="#00A441"/>
</svg>
