<svg width="22" height="22" viewBox="0 0 22 22" fill="none" xmlns="http://www.w3.org/2000/svg">
<path d="M6.10511 21.8991C4.42331 21.8991 2.88775 21.2775 1.75436 20.1442C0.547855 18.9011 -0.0736806 17.2558 -0.000558793 15.4278C0.109124 13.6729 0.876903 11.9545 2.15653 10.6749L11.2602 1.57122C13.271 -0.439626 16.3787 -0.549309 18.2068 1.27874C20.0348 3.10678 19.9251 6.25102 17.9143 8.22531L8.48157 17.7311C7.89659 18.3161 7.16538 18.6452 6.36104 18.6817C5.52014 18.7183 4.75236 18.4258 4.20394 17.8774C3.07056 16.744 3.14368 14.8063 4.35019 13.5998L14.2948 3.65519C14.7335 3.21646 15.4281 3.21646 15.8303 3.65519C16.269 4.09392 16.269 4.78858 15.8303 5.19075L5.88575 15.1353C5.52014 15.5009 5.44701 16.0128 5.7395 16.3053C5.88575 16.4515 6.10511 16.4881 6.25135 16.4881C6.50728 16.4881 6.72664 16.3784 6.90945 16.159L16.3787 6.68975C17.5121 5.55636 17.6584 3.80144 16.6712 2.81429C15.6841 1.82715 13.9657 1.93683 12.7958 3.10678L3.72865 12.247C2.81463 13.161 2.26622 14.331 2.19309 15.574C2.11997 16.744 2.52214 17.8408 3.28992 18.6086C4.0577 19.3764 5.15453 19.7785 6.32448 19.7054C7.53098 19.6323 8.73749 19.0839 9.65152 18.1699L19.2305 8.59091C19.6692 8.15218 20.3639 8.15218 20.766 8.59091C21.2048 9.02965 21.2048 9.7243 20.766 10.1265L11.2236 19.742C9.90744 21.0582 8.22564 21.826 6.47072 21.8991C6.36104 21.8991 6.21479 21.8991 6.10511 21.8991Z" fill="#8D8D8D"/>
</svg>
