<svg width="24" height="20" viewBox="0 0 24 20" fill="none" xmlns="http://www.w3.org/2000/svg">
<g clip-path="url(#clip0_544_2451)">
<path d="M22.8 20H1.2C0.52 20 0 19.4715 0 18.7805V4.39024C0 3.69919 0.52 3.17073 1.2 3.17073H6.6L6.88 1.05691C6.96 0.447154 7.48 0 8.08 0H16C16.6 0 17.12 0.447154 17.2 1.05691L17.48 3.17073H22.8C23.48 3.17073 24 3.69919 24 4.39024V18.7398C24 19.4309 23.48 20 22.8 20ZM2.4 17.561H21.6V5.60976H16.36C15.76 5.60976 15.24 5.1626 15.16 4.55285L14.92 2.43902H9.12L8.84 4.55285C8.76 5.1626 8.24 5.60976 7.64 5.60976H2.4V17.561Z" fill="#8D8D8D"/>
<path d="M12 16.4229C9.28004 16.4229 7.04004 14.1464 7.04004 11.3822C7.04004 8.61797 9.28004 6.34155 12 6.34155C14.72 6.34155 16.96 8.61797 16.96 11.3822C16.96 14.1464 14.76 16.4229 12 16.4229ZM12 8.78058C10.6 8.78058 9.44004 9.95944 9.44004 11.3822C9.44004 12.805 10.6 13.9838 12 13.9838C13.4 13.9838 14.56 12.805 14.56 11.3822C14.56 9.95944 13.44 8.78058 12 8.78058Z" fill="#8D8D8D"/>
</g>
<defs>
<clipPath id="clip0_544_2451">
<rect width="24" height="20" fill="white"/>
</clipPath>
</defs>
</svg>
