<svg width="18" height="18" viewBox="0 0 18 18" fill="none" xmlns="http://www.w3.org/2000/svg">
<path d="M11.5001 0.666677C10.1359 0.667781 8.81528 1.14694 7.76781 2.02085C6.72034 2.89476 6.01227 4.10814 5.76672 5.45001C5.04875 5.83736 4.43646 6.39451 3.98326 7.07284C3.53007 7.75118 3.24974 8.53011 3.16672 9.34168C2.54651 9.61449 2.00219 10.0344 1.58093 10.5651C1.15967 11.0958 0.874183 11.7212 0.749216 12.3872C0.624249 13.0531 0.66357 13.7395 0.863771 14.3868C1.06397 15.0341 1.41901 15.6228 1.89812 16.1019C2.37723 16.5811 2.96596 16.9361 3.61327 17.1363C4.26058 17.3365 4.94695 17.3758 5.61288 17.2509C6.27882 17.1259 6.90424 16.8404 7.43493 16.4191C7.96562 15.9979 8.38557 15.4536 8.65839 14.8333C9.46756 14.7529 10.2449 14.4764 10.923 14.0277C11.6012 13.579 12.1597 12.9717 12.5501 12.2583C14.0092 12.0243 15.325 11.2452 16.2319 10.0784C17.1387 8.91161 17.569 7.44413 17.4357 5.97241C17.3023 4.50068 16.6154 3.1344 15.5137 2.14956C14.4119 1.16473 12.9775 0.634746 11.5001 0.666677ZM7.33339 13.525C7.33339 13.6083 7.33339 13.6917 7.27506 13.7833C7.16742 14.2123 6.94793 14.6049 6.639 14.9214C6.33006 15.2378 5.94272 15.4666 5.5165 15.5844C5.09027 15.7023 4.64042 15.7049 4.21282 15.5922C3.78522 15.4794 3.39517 15.2553 3.08248 14.9426C2.76979 14.6299 2.54563 14.2399 2.43288 13.8123C2.32012 13.3847 2.32281 12.9348 2.44066 12.5086C2.55851 12.0823 2.78731 11.695 3.10371 11.3861C3.42012 11.0771 3.81281 10.8577 4.24172 10.75L4.47506 10.6667C4.86637 10.5936 5.26961 10.6169 5.64988 10.7347C6.03015 10.8524 6.37599 11.0611 6.65749 11.3426C6.93898 11.6241 7.14764 11.9699 7.26541 12.3502C7.38318 12.7305 7.40651 13.1337 7.33339 13.525ZM11.5001 10.4667C11.4891 10.5202 11.4752 10.573 11.4584 10.625C11.4226 10.7784 11.3752 10.9288 11.3167 11.075C11.1249 11.5615 10.8212 11.996 10.4304 12.3435C10.0395 12.6909 9.57236 12.9415 9.06672 13.075C9.06672 12.925 9.06672 12.7833 9.01672 12.6333C8.96672 12.4833 9.01672 12.4083 9.01672 12.3C9.01672 12.1917 8.91672 11.9833 8.86672 11.825C8.81672 11.6667 8.80839 11.625 8.76672 11.525C8.69489 11.3662 8.61132 11.213 8.51672 11.0667C8.51672 10.9917 8.44172 10.9083 8.39172 10.8333C8.2435 10.6161 8.07617 10.4125 7.89172 10.225L7.72506 10.0833C7.58537 9.9549 7.43786 9.83523 7.28339 9.72501C7.1926 9.66594 7.09794 9.61305 7.00006 9.56668C6.86668 9.48189 6.72744 9.4067 6.58339 9.34168C6.47576 9.29563 6.36419 9.25938 6.25006 9.23334C6.10976 9.17641 5.96476 9.13179 5.81672 9.10001C5.70006 9.10001 5.57506 9.10001 5.45006 9.05001L4.94172 9.00001C5.07438 8.49523 5.32371 8.02866 5.66964 7.63786C6.01557 7.24705 6.44844 6.94294 6.93339 6.75001C7.07632 6.69032 7.22408 6.64293 7.37506 6.60834L7.54172 6.56668C7.74728 6.52345 7.95668 6.50111 8.16672 6.50001C9.05078 6.50001 9.89862 6.8512 10.5237 7.47632C11.1489 8.10144 11.5001 8.94929 11.5001 9.83334C11.4989 10.0461 11.4766 10.2583 11.4334 10.4667H11.5001ZM13.1667 10.3333C13.1667 10.1667 13.1667 10 13.1667 9.83334C13.1667 8.50726 12.6399 7.23549 11.7023 6.29781C10.7646 5.36013 9.49281 4.83334 8.16672 4.83334C8.00006 4.83334 7.83339 4.83334 7.66672 4.83334C7.94141 4.21547 8.36234 3.67373 8.89318 3.25488C9.42402 2.83604 10.0488 2.55269 10.7137 2.42928C11.3785 2.30587 12.0633 2.34611 12.7091 2.54654C13.3549 2.74697 13.9422 3.10155 14.4204 3.57968C14.8985 4.05782 15.2531 4.64513 15.4535 5.29093C15.654 5.93672 15.6942 6.62159 15.5708 7.28642C15.4474 7.95124 15.164 8.57604 14.7452 9.10689C14.3263 9.63773 13.7846 10.0587 13.1667 10.3333Z" fill="#00D5AA"/>
</svg>
