<svg width="20" height="21" viewBox="0 0 20 21" fill="none" xmlns="http://www.w3.org/2000/svg">
<path d="M19.7718 16.8328C19.1246 16.2774 18.558 15.6407 18.0872 14.9399C17.5733 13.9725 17.2653 12.916 17.1812 11.8324V8.6409C17.1857 6.93896 16.5443 5.29403 15.3777 4.01518C14.211 2.73632 12.5994 1.91157 10.8456 1.69588V0.862475C10.8456 0.633733 10.7512 0.414359 10.5832 0.252613C10.4152 0.0908677 10.1873 0 9.94967 0C9.71204 0 9.48414 0.0908677 9.31612 0.252613C9.14809 0.414359 9.05369 0.633733 9.05369 0.862475V1.7088C7.31561 1.94004 5.72347 2.76978 4.57217 4.04433C3.42086 5.31889 2.78841 6.9519 2.79195 8.6409V11.8324C2.70789 12.916 2.39985 13.9725 1.88591 14.9399C1.42341 15.6391 0.865903 16.2757 0.228188 16.8328C0.156598 16.8933 0.0992224 16.9679 0.0598775 17.0514C0.0205325 17.135 0.000120669 17.2256 0 17.3173V18.196C0 18.3673 0.0707093 18.5316 0.196573 18.6528C0.322436 18.774 0.493143 18.842 0.671141 18.842H19.3289C19.5069 18.842 19.6776 18.774 19.8034 18.6528C19.9293 18.5316 20 18.3673 20 18.196V17.3173C19.9999 17.2256 19.9795 17.135 19.9401 17.0514C19.9008 16.9679 19.8434 16.8933 19.7718 16.8328ZM1.39597 17.5499C2.02041 16.9693 2.5702 16.3186 3.03356 15.6118C3.68095 14.4434 4.05868 13.1542 4.14094 11.8324V8.6409C4.11432 7.88376 4.24626 7.1292 4.52889 6.42216C4.81152 5.71512 5.23907 5.07005 5.78607 4.52538C6.33308 3.98071 6.98835 3.54756 7.71287 3.25174C8.4374 2.95592 9.21635 2.80347 10.0034 2.80347C10.7904 2.80347 11.5693 2.95592 12.2938 3.25174C13.0184 3.54756 13.6736 3.98071 14.2206 4.52538C14.7676 5.07005 15.1952 5.71512 15.4778 6.42216C15.7605 7.1292 15.8924 7.88376 15.8658 8.6409V11.8324C15.948 13.1542 16.3258 14.4434 16.9732 15.6118C17.4365 16.3186 17.9863 16.9693 18.6107 17.5499H1.39597Z" fill="#8D8D8D"/>
<path d="M10.0335 20.9999C10.4563 20.9906 10.862 20.8376 11.1789 20.568C11.4958 20.2984 11.7034 19.9297 11.7651 19.5269H8.23486C8.29827 19.9406 8.51562 20.318 8.84648 20.589C9.17733 20.8599 9.59917 21.006 10.0335 20.9999Z" fill="#8D8D8D"/>
</svg>
