<svg width="16" height="17" viewBox="0 0 16 17" fill="none" xmlns="http://www.w3.org/2000/svg">
<g clip-path="url(#clip0_1_258)">
<path d="M15 4.59207V11.344C15 12.4974 14.0749 13.4361 12.9378 13.4361H6.39514L2.0549 16.5V13.4361C0.921112 13.4322 0 12.4951 0 11.344V4.59207C0 3.43853 0.92514 2.5 2.06223 2.5H12.9378C14.0749 2.5 15 3.43853 15 4.59207Z" fill="#FFB800"/>
<path d="M16 4.6043V11.3957C16 12.5559 15.0135 13.5 13.801 13.5H8V2.5H13.801C15.0135 2.5 16 3.44402 16 4.6043Z" fill="#FF8600"/>
<path d="M5 5.5H12V6.5H5V5.5Z" fill="white"/>
<path d="M5 7.5H12V8.5H5V7.5Z" fill="white"/>
<path d="M5 9.5H12V10.5H5V9.5Z" fill="white"/>
<path d="M8 5.5H11V6.5H8V5.5Z" fill="#E1E1E3"/>
<path d="M8 7.5H11V8.5H8V7.5Z" fill="#E1E1E3"/>
<path d="M8 8.5H11V9.5H8V8.5Z" fill="#E1E1E3"/>
</g>
<defs>
<clipPath id="clip0_1_258">
<rect width="16" height="16" fill="white" transform="translate(0 0.5)"/>
</clipPath>
</defs>
</svg>
