<svg width="18" height="14" viewBox="0 0 18 14" fill="none" xmlns="http://www.w3.org/2000/svg">
<path fill-rule="evenodd" clip-rule="evenodd" d="M3.8 0.25C1.83939 0.25 0.25 1.83939 0.25 3.8V10.2C0.25 12.1606 1.83939 13.75 3.8 13.75H14.2C16.1606 13.75 17.75 12.1606 17.75 10.2V3.8C17.75 1.83939 16.1606 0.25 14.2 0.25H3.8ZM5.45 4.4C5.11863 4.15147 4.64853 4.21863 4.4 4.55C4.15147 4.88137 4.21863 5.35147 4.55 5.6L7.95 8.15C8.57222 8.61667 9.42778 8.61667 10.05 8.15L13.45 5.6C13.7814 5.35147 13.8485 4.88137 13.6 4.55C13.3515 4.21863 12.8814 4.15147 12.55 4.4L9.15 6.95C9.06111 7.01667 8.93889 7.01667 8.85 6.95L5.45 4.4Z" fill="#1D1D18"/>
</svg>
