<svg width="16" height="16" viewBox="0 0 16 16" fill="none" xmlns="http://www.w3.org/2000/svg">
<path d="M3.59266 6.50998C3.91184 5.56628 4.52784 4.7452 5.35277 4.16386C6.17771 3.58251 7.16944 3.27062 8.18648 3.27266C9.33937 3.27266 10.3817 3.67266 11.2004 4.32732L13.5826 2C12.1309 0.763331 10.2706 0 8.18648 0C4.95976 0 2.18191 1.79866 0.846191 4.43332L3.59266 6.50998Z" fill="#EA4335"/>
<path d="M10.9426 12.0086C10.199 12.4773 9.25488 12.7273 8.18658 12.7273C7.17358 12.7293 6.1856 12.4199 5.3625 11.8429C4.5394 11.2658 3.92289 10.4504 3.60026 9.51196L0.844238 11.5566C1.52045 12.8941 2.56693 14.0195 3.86482 14.805C5.16272 15.5904 6.65999 16.0044 8.18658 15.9999C10.1874 15.9999 12.0989 15.3046 13.5308 14L10.9433 12.0086H10.9426Z" fill="#34A853"/>
<path d="M13.5303 14C15.0277 12.6347 15.9998 10.6027 15.9998 8.00001C15.9998 7.52668 15.9254 7.01801 15.8142 6.54535H8.18604V9.63668H12.5766C12.3603 10.676 11.7784 11.4807 10.9427 12.0087L13.5303 14Z" fill="#4A90E2"/>
<path d="M3.59996 9.512C3.43307 9.02461 3.34828 8.51397 3.34892 8.00001C3.34892 7.47868 3.43419 6.97801 3.59246 6.51001L0.845987 4.43335C0.284125 5.5418 -0.005512 6.76302 7.94433e-05 8.00001C7.94433e-05 9.28 0.303651 10.4867 0.84394 11.5567L3.59996 9.512Z" fill="#FBBC05"/>
</svg>
