<svg width="18" height="22" viewBox="0 0 18 22" fill="none" xmlns="http://www.w3.org/2000/svg">
<path d="M5 8V3.8C5 2.2536 6.2536 1 7.8 1H10.2C11.7464 1 13 2.2536 13 3.8V4.5" stroke="#B0BABF" stroke-width="1.5" stroke-linecap="round"/>
<path fill-rule="evenodd" clip-rule="evenodd" d="M9.40538 6.95834C9.13601 6.92738 8.86399 6.92738 8.59462 6.95834L3.39462 7.55604C1.60265 7.76202 0.25 9.27905 0.25 11.0828V17.2622C0.25 18.9901 1.49407 20.467 3.19683 20.7606L8.39683 21.6571C8.796 21.7259 9.204 21.7259 9.60317 21.6571L14.8032 20.7606C16.5059 20.467 17.75 18.9901 17.75 17.2622V11.0828C17.75 9.27905 16.3974 7.76202 14.6054 7.55604L9.40538 6.95834ZM7.13892 13.2223C7.13892 12.1944 7.97216 11.3611 9.00003 11.3611C10.0279 11.3611 10.8611 12.1944 10.8611 13.2223C10.8611 13.9833 10.4044 14.6376 9.75 14.9261V16.5557C9.75 16.9699 9.41421 17.3057 9 17.3057C8.58579 17.3057 8.25 16.9699 8.25 16.5557V14.9261C7.59567 14.6376 7.13892 13.9833 7.13892 13.2223Z" fill="#B0BABF"/>
</svg>
