<svg width="18" height="16" viewBox="0 0 18 16" fill="none" xmlns="http://www.w3.org/2000/svg">
<path d="M16.4998 6.74999H15.6665V5.91666C15.6665 5.69564 15.5787 5.48368 15.4224 5.3274C15.2661 5.17112 15.0542 5.08332 14.8332 5.08332C14.6122 5.08332 14.4002 5.17112 14.2439 5.3274C14.0876 5.48368 13.9998 5.69564 13.9998 5.91666V6.74999H13.1665C12.9455 6.74999 12.7335 6.83779 12.5772 6.99407C12.421 7.15035 12.3332 7.36231 12.3332 7.58332C12.3332 7.80434 12.421 8.0163 12.5772 8.17258C12.7335 8.32886 12.9455 8.41666 13.1665 8.41666H13.9998V9.24999C13.9998 9.471 14.0876 9.68297 14.2439 9.83925C14.4002 9.99553 14.6122 10.0833 14.8332 10.0833C15.0542 10.0833 15.2661 9.99553 15.4224 9.83925C15.5787 9.68297 15.6665 9.471 15.6665 9.24999V8.41666H16.4998C16.7209 8.41666 16.9328 8.32886 17.0891 8.17258C17.2454 8.0163 17.3332 7.80434 17.3332 7.58332C17.3332 7.36231 17.2454 7.15035 17.0891 6.99407C16.9328 6.83779 16.7209 6.74999 16.4998 6.74999ZM10.0832 8.18332C10.5278 7.79843 10.8845 7.32239 11.1289 6.78751C11.3733 6.25262 11.4998 5.67141 11.4998 5.08332C11.4998 3.97825 11.0609 2.91845 10.2794 2.13704C9.49805 1.35564 8.43824 0.916656 7.33317 0.916656C6.2281 0.916656 5.16829 1.35564 4.38689 2.13704C3.60549 2.91845 3.1665 3.97825 3.1665 5.08332C3.1665 5.67141 3.29301 6.25262 3.53744 6.78751C3.78188 7.32239 4.13852 7.79843 4.58317 8.18332C3.41662 8.71156 2.42689 9.5646 1.73232 10.6404C1.03775 11.7163 0.66773 12.9694 0.666504 14.25C0.666504 14.471 0.754301 14.683 0.910582 14.8392C1.06686 14.9955 1.27882 15.0833 1.49984 15.0833C1.72085 15.0833 1.93281 14.9955 2.08909 14.8392C2.24537 14.683 2.33317 14.471 2.33317 14.25C2.33317 12.9239 2.85996 11.6521 3.79764 10.7145C4.73532 9.77677 6.00709 9.24999 7.33317 9.24999C8.65925 9.24999 9.93102 9.77677 10.8687 10.7145C11.8064 11.6521 12.3332 12.9239 12.3332 14.25C12.3332 14.471 12.421 14.683 12.5772 14.8392C12.7335 14.9955 12.9455 15.0833 13.1665 15.0833C13.3875 15.0833 13.5995 14.9955 13.7558 14.8392C13.912 14.683 13.9998 14.471 13.9998 14.25C13.9986 12.9694 13.6286 11.7163 12.934 10.6404C12.2395 9.5646 11.2497 8.71156 10.0832 8.18332ZM7.33317 7.58332C6.83872 7.58332 6.35537 7.4367 5.94425 7.162C5.53312 6.88729 5.21269 6.49685 5.02347 6.04003C4.83425 5.58322 4.78474 5.08055 4.88121 4.5956C4.97767 4.11065 5.21577 3.66519 5.5654 3.31556C5.91504 2.96593 6.36049 2.72782 6.84545 2.63136C7.3304 2.5349 7.83306 2.58441 8.28988 2.77362C8.74669 2.96284 9.13714 3.28327 9.41185 3.6944C9.68655 4.10552 9.83317 4.58887 9.83317 5.08332C9.83317 5.74636 9.56978 6.38225 9.10094 6.85109C8.6321 7.31993 7.99621 7.58332 7.33317 7.58332Z" fill="#7B91F7"/>
</svg>
