<svg width="22" height="20" viewBox="0 0 22 20" fill="none" xmlns="http://www.w3.org/2000/svg">
<path fill-rule="evenodd" clip-rule="evenodd" d="M19.6637 1.63414C19.9501 1.33494 19.9398 0.860178 19.6406 0.57373C19.3414 0.287283 18.8666 0.29762 18.5802 0.59682L1.45832 18.4809C1.17187 18.7801 1.18221 19.2549 1.48141 19.5413C1.78061 19.8278 2.25537 19.8175 2.54182 19.5183L6.26872 15.6254L6.34923 15.6747C6.37169 15.6884 6.39485 15.7009 6.41863 15.7122C7.80736 16.3719 9.32787 16.75 11 16.75C15.2885 16.75 18.5092 14.2745 21.1068 11.0754C21.6158 10.4485 21.6158 9.55161 21.1068 8.92466C19.784 7.29553 18.3029 5.85643 16.5997 4.83451L19.6637 1.63414ZM2.05776 9.87014C4.53153 6.82346 7.36854 4.75001 11 4.75001C11.4142 4.75001 11.75 4.41422 11.75 4.00001C11.75 3.58579 11.4142 3.25001 11 3.25001C6.71156 3.25001 3.4908 5.72554 0.893281 8.92464C0.384298 9.5515 0.384133 10.4483 0.893221 11.0753C1.62454 11.976 2.40263 12.8165 3.23803 13.5602C3.54742 13.8356 4.02149 13.8081 4.2969 13.4987C4.57231 13.1893 4.54477 12.7152 4.23538 12.4398C3.47267 11.7609 2.74972 10.9821 2.05771 10.1298C1.99608 10.0539 1.99603 9.94617 2.05776 9.87014ZM10.5303 11.4697L10 10.9393L8.93934 12L9.46966 12.5303C9.77144 12.8321 10.1297 13.0715 10.524 13.2349C10.9183 13.3982 11.3409 13.4823 11.7677 13.4823C12.1945 13.4823 12.6172 13.3982 13.0115 13.2349C13.4058 13.0716 13.7641 12.8322 14.0659 12.5304C14.3677 12.2286 14.607 11.8704 14.7704 11.476C14.9337 11.0817 15.0178 10.6591 15.0178 10.2323C15.0178 9.80554 14.9338 9.38292 14.7704 8.98861C14.6071 8.5943 14.3677 8.23601 14.0659 7.93422L13.5356 7.40388L12.4749 8.46452L13.0053 8.99486C13.1678 9.15736 13.2967 9.35028 13.3846 9.5626C13.4725 9.77493 13.5178 10.0025 13.5178 10.2323C13.5178 10.4621 13.4725 10.6897 13.3846 10.902C13.2966 11.1143 13.1677 11.3072 13.0052 11.4697C12.8427 11.6322 12.6498 11.7611 12.4375 11.8491C12.2251 11.937 11.9976 11.9823 11.7678 11.9823C11.538 11.9823 11.3104 11.937 11.0981 11.849C10.8858 11.7611 10.6928 11.6322 10.5303 11.4697Z" fill="#B0BABF"/>
</svg>
