<svg width="22" height="15" viewBox="0 0 22 15" fill="none" xmlns="http://www.w3.org/2000/svg">
<path d="M22 7.39437C22 7.35916 22 7.32394 22 7.28873C22 7.25352 21.9634 7.21831 21.9634 7.1831C21.9634 7.14789 21.9268 7.11268 21.9268 7.07747C21.9268 7.04225 21.8902 7.00704 21.8902 7.00704C21.8536 6.97183 21.8536 6.93662 21.817 6.90141C21.817 6.90141 21.817 6.90141 21.817 6.8662C18.4859 2.32394 14.8619 0 10.9817 0C7.1015 0 3.51414 2.32394 0.183028 6.90141C0.183028 6.90141 0.183028 6.90141 0.183028 6.93662C0.146423 6.97183 0.146423 7.00704 0.109817 7.04225C0.109817 7.07747 0.0732113 7.07747 0.0732113 7.11268C0.0732113 7.14789 0.0366057 7.1831 0.0366057 7.21831C0.0366057 7.25352 0 7.28873 0 7.32394C0 7.35915 0 7.39437 0 7.42958C0 7.46479 0 7.5 0 7.53521C0 7.57042 0 7.60563 0 7.64085C0 7.67606 0 7.71127 0 7.74648C0 7.78169 0.0366057 7.8169 0.0366057 7.85211C0.0366057 7.88732 0.0732113 7.92254 0.0732113 7.95775C0.0732113 7.99296 0.109817 8.02817 0.109817 8.02817C0.146423 8.06338 0.146423 8.09859 0.183028 8.1338C0.183028 8.1338 0.183028 8.1338 0.183028 8.16901C3.47754 12.7465 7.1381 15.0704 10.9817 15.0704C14.8253 15.0704 18.4859 12.6761 21.7804 8.09859C21.7804 8.09859 21.7804 8.09859 21.7804 8.06338C21.817 8.02817 21.817 7.99296 21.8536 7.95775C21.8536 7.92254 21.8902 7.92254 21.8902 7.88732C21.8902 7.85211 21.9268 7.8169 21.9268 7.78169C21.9268 7.74648 21.9634 7.71127 21.9634 7.67606C21.9634 7.64084 21.9634 7.60563 21.9634 7.57042C21.9634 7.53521 21.9634 7.5 21.9634 7.46479C22 7.46479 22 7.42958 22 7.39437ZM10.9817 10.8099C9.0782 10.8099 7.54077 9.33099 7.54077 7.5C7.54077 5.66901 9.0782 4.19014 10.9817 4.19014C12.8852 4.19014 14.4226 5.66901 14.4226 7.5C14.4226 9.33099 12.8852 10.8099 10.9817 10.8099Z" fill="#8D8D8D"/>
</svg>
