<svg width="15" height="15" viewBox="0 0 15 15" fill="none" xmlns="http://www.w3.org/2000/svg">
<path d="M14.5252 3.46667L11.839 1.00834C11.6615 0.847535 11.4212 0.757263 11.1708 0.757263C10.9204 0.757263 10.6802 0.847535 10.5027 1.00834L0.979618 9.66667L0.110137 13.0833C0.0801433 13.2082 0.0811715 13.3377 0.113147 13.4622C0.145122 13.5866 0.207237 13.7031 0.294954 13.8029C0.38267 13.9027 0.493773 13.9834 0.620145 14.0392C0.746518 14.0949 0.884967 14.1242 1.02538 14.125C1.09081 14.131 1.15673 14.131 1.22216 14.125L5.01584 13.3333L14.5252 4.68334C14.7018 4.52172 14.801 4.303 14.801 4.07501C14.801 3.84702 14.7018 3.6283 14.5252 3.46667ZM4.55821 12.5833L1.0025 13.2625L1.81249 10.0875L8.93765 3.62501L11.6834 6.12501L4.55821 12.5833ZM12.2966 5.52084L9.55086 3.02084L11.1434 1.57917L13.8433 4.07917L12.2966 5.52084Z" fill="#2E2E2E"/>
</svg>
