<svg width="27" height="27" viewBox="0 0 27 27" fill="none" xmlns="http://www.w3.org/2000/svg">
<path d="M14.8322 13.6573L4.80497 15.3045C4.68969 15.3234 4.5815 15.372 4.4913 15.4453C4.40109 15.5185 4.33204 15.6139 4.29109 15.7218L0.833754 24.854C0.503596 25.694 1.39422 26.4946 2.21163 26.0904L26.1747 14.2781C26.3403 14.1963 26.4796 14.0706 26.5769 13.9152C26.6742 13.7598 26.7258 13.5807 26.7258 13.3981C26.7258 13.2154 26.6742 13.0364 26.5769 12.881C26.4796 12.7256 26.3403 12.5999 26.1747 12.5181L2.21163 0.705825C1.39422 0.302896 0.503596 1.1035 0.833754 1.94217L4.29242 11.0744C4.33337 11.1823 4.40242 11.2777 4.49263 11.3509C4.58284 11.4242 4.69102 11.4728 4.8063 11.4917L14.8335 13.1389C14.8961 13.1487 14.953 13.1802 14.9941 13.2277C15.0352 13.2752 15.0578 13.3356 15.0578 13.3981C15.0578 13.4605 15.0352 13.5209 14.9941 13.5684C14.953 13.616 14.8961 13.6475 14.8335 13.6573H14.8322Z" fill="white"/>
</svg>
