<svg width="16" height="15" viewBox="0 0 16 15" fill="none" xmlns="http://www.w3.org/2000/svg">
<path d="M10.7826 8.0325C11.5179 7.454 12.0546 6.66069 12.318 5.76296C12.5815 4.86522 12.5586 3.9077 12.2525 3.0236C11.9464 2.1395 11.3723 1.3728 10.6102 0.830144C9.84803 0.287491 8.93571 -0.00411987 8.00012 -0.00411987C7.06453 -0.00411987 6.1522 0.287491 5.39007 0.830144C4.62793 1.3728 4.05388 2.1395 3.74778 3.0236C3.44168 3.9077 3.41875 4.86522 3.68219 5.76296C3.94563 6.66069 4.48233 7.454 5.21762 8.0325C3.95768 8.53728 2.85834 9.37451 2.03679 10.4549C1.21524 11.5354 0.702292 12.8185 0.55262 14.1675C0.541786 14.266 0.550457 14.3657 0.578139 14.4608C0.60582 14.5559 0.65197 14.6447 0.713953 14.722C0.839134 14.8781 1.02121 14.9781 1.22012 15C1.41903 15.0219 1.61849 14.9638 1.77461 14.8387C1.93074 14.7135 2.03074 14.5314 2.05262 14.3325C2.21731 12.8664 2.91638 11.5124 4.01628 10.5291C5.11618 9.54583 6.53979 9.00227 8.01512 9.00227C9.49045 9.00227 10.9141 9.54583 12.014 10.5291C13.1139 11.5124 13.8129 12.8664 13.9776 14.3325C13.998 14.5168 14.0859 14.687 14.2244 14.8103C14.363 14.9335 14.5422 15.0011 14.7276 15H14.8101C15.0067 14.9774 15.1864 14.878 15.31 14.7234C15.4337 14.5689 15.4912 14.3718 15.4701 14.175C15.3197 12.8222 14.804 11.5357 13.9783 10.4537C13.1525 9.37157 12.0478 8.53461 10.7826 8.0325ZM8.00012 7.5C7.40678 7.5 6.82676 7.32405 6.33341 6.99441C5.84006 6.66477 5.45554 6.19623 5.22848 5.64805C5.00142 5.09987 4.94201 4.49667 5.05776 3.91473C5.17352 3.33279 5.45924 2.79824 5.8788 2.37868C6.29836 1.95912 6.83291 1.6734 7.41485 1.55765C7.99679 1.44189 8.59999 1.5013 9.14817 1.72836C9.69635 1.95543 10.1649 2.33994 10.4945 2.83329C10.8242 3.32664 11.0001 3.90666 11.0001 4.5C11.0001 5.29565 10.684 6.05871 10.1214 6.62132C9.55883 7.18393 8.79577 7.5 8.00012 7.5Z" fill="#FF8600"/>
</svg>
