<svg width="16" height="15" viewBox="0 0 16 15" fill="none" xmlns="http://www.w3.org/2000/svg">
<path d="M10.7824 8.0325C11.5177 7.454 12.0544 6.66069 12.3178 5.76296C12.5812 4.86522 12.5583 3.9077 12.2522 3.0236C11.9461 2.1395 11.3721 1.3728 10.6099 0.830144C9.84779 0.287491 8.93546 -0.00411987 7.99988 -0.00411987C7.06429 -0.00411987 6.15196 0.287491 5.38982 0.830144C4.62768 1.3728 4.05363 2.1395 3.74753 3.0236C3.44144 3.9077 3.41851 4.86522 3.68195 5.76296C3.94538 6.66069 4.48208 7.454 5.21738 8.0325C3.95743 8.53728 2.85809 9.37451 2.03654 10.4549C1.215 11.5354 0.702048 12.8185 0.552375 14.1675C0.541541 14.266 0.550213 14.3657 0.577895 14.4608C0.605576 14.5559 0.651726 14.6447 0.713709 14.722C0.83889 14.8781 1.02096 14.9781 1.21988 15C1.41879 15.0219 1.61825 14.9638 1.77437 14.8387C1.93049 14.7135 2.0305 14.5314 2.05238 14.3325C2.21706 12.8664 2.91614 11.5124 4.01604 10.5291C5.11594 9.54583 6.53955 9.00227 8.01488 9.00227C9.4902 9.00227 10.9138 9.54583 12.0137 10.5291C13.1136 11.5124 13.8127 12.8664 13.9774 14.3325C13.9978 14.5168 14.0857 14.687 14.2242 14.8103C14.3627 14.9335 14.542 15.0011 14.7274 15H14.8099C15.0065 14.9774 15.1862 14.878 15.3098 14.7234C15.4334 14.5689 15.491 14.3718 15.4699 14.175C15.3195 12.8222 14.8038 11.5357 13.978 10.4537C13.1522 9.37157 12.0476 8.53461 10.7824 8.0325ZM7.99988 7.5C7.40653 7.5 6.82651 7.32405 6.33317 6.99441C5.83982 6.66477 5.4553 6.19623 5.22824 5.64805C5.00117 5.09987 4.94176 4.49667 5.05752 3.91473C5.17327 3.33279 5.459 2.79824 5.87855 2.37868C6.29811 1.95912 6.83266 1.6734 7.41461 1.55765C7.99655 1.44189 8.59975 1.5013 9.14793 1.72836C9.69611 1.95543 10.1646 2.33994 10.4943 2.83329C10.8239 3.32664 10.9999 3.90666 10.9999 4.5C10.9999 5.29565 10.6838 6.05871 10.1212 6.62132C9.55859 7.18393 8.79553 7.5 7.99988 7.5Z" fill="#818187"/>
</svg>
