<svg width="16" height="22" viewBox="0 0 16 22" fill="none" xmlns="http://www.w3.org/2000/svg">
<g clip-path="url(#clip0_3249_158)">
<path d="M11.3476 22.0001H4.69042C4.04739 22.0001 3.55566 21.5242 3.55566 20.9019C3.55566 20.2796 4.04739 19.8037 4.69042 19.8037H11.3476C11.9907 19.8037 12.4824 20.2796 12.4824 20.9019C12.4824 21.5242 11.9528 22.0001 11.3476 22.0001Z" fill="#8D8D8D"/>
<path d="M8.01903 22.0001C7.376 22.0001 6.88428 21.5242 6.88428 20.9019V17.8271C6.88428 17.2048 7.376 16.7289 8.01903 16.7289C8.66206 16.7289 9.15378 17.2048 9.15378 17.8271V20.9019C9.15378 21.5242 8.62423 22.0001 8.01903 22.0001Z" fill="#8D8D8D"/>
<path d="M8.01891 18.9252C3.59338 18.9252 0 15.4476 0 11.1648V9.00503C0 8.38273 0.491726 7.90686 1.13475 7.90686C1.77778 7.90686 2.2695 8.38273 2.2695 9.00503V11.1648C2.2695 14.2396 4.84161 16.7288 8.01891 16.7288C11.1962 16.7288 13.7683 14.2396 13.7683 11.1648V9.00503C13.7683 8.38273 14.26 7.90686 14.9031 7.90686C15.5461 7.90686 16.0378 8.38273 16.0378 9.00503V11.1648C16 15.4476 12.4066 18.9252 8.01891 18.9252Z" fill="#8D8D8D"/>
<path d="M8.01873 15.411C5.82488 15.411 4.00928 13.6539 4.00928 11.5308V4.9418C4.00928 4.3195 4.501 3.84363 5.14403 3.84363C5.78706 3.84363 6.27878 4.3195 6.27878 4.9418V11.5308C6.27878 12.446 7.07311 13.2147 8.01873 13.2147C8.96436 13.2147 9.75869 12.446 9.75869 11.5308V4.9418C9.75869 4.3195 10.2504 3.84363 10.8934 3.84363C11.5365 3.84363 12.0282 4.3195 12.0282 4.9418V11.5308C12.0282 13.6539 10.2126 15.411 8.01873 15.411Z" fill="#8D8D8D"/>
<path d="M10.8934 11.5674C10.2504 11.5674 9.75869 11.0915 9.75869 10.4692V3.8802C9.75869 2.96506 8.96436 2.19634 8.01873 2.19634C7.07311 2.19634 6.27878 2.96506 6.27878 3.8802V10.4692C6.27878 11.0915 5.78706 11.5674 5.14403 11.5674C4.501 11.5674 4.00928 11.0915 4.00928 10.4692V3.8802C4.00928 1.75707 5.78706 0 8.01873 0C10.2504 0 12.0282 1.75707 12.0282 3.8802V10.4692C12.0282 11.0915 11.4986 11.5674 10.8934 11.5674Z" fill="#8D8D8D"/>
</g>
<defs>
<clipPath id="clip0_3249_158">
<rect width="16" height="22" fill="white"/>
</clipPath>
</defs>
</svg>
