<svg width="16" height="19" viewBox="0 0 16 19" fill="none" xmlns="http://www.w3.org/2000/svg">
<path d="M11 4C11 5.65685 9.65685 7 8 7C6.34315 7 5 5.65685 5 4C5 2.34315 6.34315 1 8 1C9.65685 1 11 2.34315 11 4Z" fill="#B0BABF" stroke="#B0BABF" stroke-width="1.5"/>
<path d="M1 13.5589V15C1 16.3807 2.11929 17.5 3.5 17.5H12.5C13.8807 17.5 15 16.3807 15 15V13.6702C15 12.5364 14.3165 11.5123 13.2416 11.1518C11.7051 10.6365 9.75626 10 8 10C6.28001 10 3.98586 10.6105 2.62518 11.1197C1.61649 11.4972 1 12.4819 1 13.5589Z" fill="#B0BABF"/>
<path fill-rule="evenodd" clip-rule="evenodd" d="M8 10.75C6.40815 10.75 4.21025 11.3273 2.88807 11.8221C2.20212 12.0789 1.75 12.7617 1.75 13.5589V15C1.75 15.9665 2.5335 16.75 3.5 16.75H12.5C13.4665 16.75 14.25 15.9665 14.25 15V13.6702C14.25 12.8337 13.7493 12.1132 13.0031 11.8629C11.4451 11.3403 9.61307 10.75 8 10.75ZM2.36229 10.4173C3.76147 9.89364 6.15187 9.25 8 9.25C9.89945 9.25 11.9651 9.93263 13.48 10.4407C14.8837 10.9115 15.75 12.2392 15.75 13.6702V15C15.75 16.7949 14.2949 18.25 12.5 18.25H3.5C1.70507 18.25 0.25 16.7949 0.25 15V13.5589C0.25 12.2021 1.03085 10.9156 2.36229 10.4173Z" fill="#B0BABF"/>
</svg>
